<svg viewBox="0 0 229 161" class="logo" width="120" xmlns="http://www.w3.org/2000/svg" xml:space="preserve"
        style="fill-rule:evenodd;clip-rule:evenodd;stroke-linejoin:round;stroke-miterlimit:2">
        <path
          d="M29.17 82.421c4.003-34.962 33.732-62.157 69.763-62.157 21.047 0 39.944 9.279 52.817 23.964l-.039.022c.343.361.641.685.94 1.027.443.525.877 1.056 1.303 1.592h.008c.265.337.561.717.902 1.16.408.53.788 1.043 1.142 1.536l-.014.001a69.403 69.403 0 0 1 1.953 2.864c.405.634.747 1.192 1.033 1.657l.004-.003a69.94 69.94 0 0 1 6.483 13.895c8.313-5.572 12.656-10.495 11.55-13.947-1.139-3.553-7.885-5.018-18.404-4.604a31.955 31.955 0 0 0-.858-1.576 9.527 9.527 0 0 0-.685-1.029c20.568-.077 34.892 4.541 37.857 13.791 3.148 9.824-7.166 22.842-25.986 35.427-2.834 36.162-33.117 64.668-70.006 64.668-11.228 0-21.844-2.641-31.258-7.334 5.145-13.664 21.098-10.431 67.983-34.016 20.459-10.292 28.647-17.452 31.541-22.172-15.283 9.925-35.78 19.51-59.054 26.968C54.519 141.34 6.329 140.773.597 122.889c-3.221-10.053 6.73-22.526 26.395-35.382a37.974 37.974 0 0 0-.119 1.939c-.03.821-.028 1.608.002 2.331-9.796 6.182-14.118 10.753-12.914 14.509 1.115 3.482 7.616 4.959 17.772 4.627a69.909 69.909 0 0 1-2.895-16.167h.002l-.017-.258a71.154 71.154 0 0 1-.112-3.765c.001-.696.012-1.424.04-2.168.056-1.549.149-2.994.249-4.228l.133-1.49.041-.416h-.004Zm0 0-.001.001-.036.415c-.044.45-.089.95-.133 1.49l-.146 1.647c.075-1.192.181-2.375.315-3.552l.001-.001Z"
          style="fill:currentColor" />
        <path
          d="M34.442 51.095a10.127 10.127 0 0 1-4.596-8.485c0-5.592 4.54-10.132 10.132-10.132 2.837 0 5.403 1.169 7.243 3.05a71.387 71.387 0 0 0-12.779 15.567Z"
          style="fill:currentColor" />
        <circle cx="173.267" cy="10.132" r="10.132" style="fill:currentColor" />
        <circle cx="218.027" cy="100.618" r="10.132" style="fill:currentColor" />
      </svg>